# File created by Blade
# Date/Time:  Tue Apr 07 20:35:32 2015
# Frame Rate: 120.000 fps
#------------------------------------------------------
:FULLY-SPECIFIED
:DEGREES
540
root 2.750115 33.707130 -3.503972 18.097163 -35.146262 -35.359759
Spine 24.441924 20.291186 28.148846
Head -21.866870 2.446404 -13.996711
LeftShoulder -25.648133 44.049684 9.505083
LeftArm 42.598115 -34.941488 -79.827857
LeftForeArm 0.590802 -0.000000 17.269465
LeftHand 12.456239 -0.000000 3.675232
LeftHandThumb1 -26.253704 0.000000 33.147579
RightShoulder 8.264826 -2.459344 -10.822325
RightArm 20.701284 -18.881219 67.166632
RightForeArm -20.042431 0.000000 -5.289039
RightHand -4.604423 -0.000000 15.165596
RightHandThumb1 -24.326973 -0.000000 -32.862282
LeftUpLeg -5.373197 7.003530 23.906131
LeftLeg 18.358707 -0.000000 -0.000000
LeftFoot -17.525466 4.961026 -27.618594
LeftToeBase 0.713317 -0.000000 -0.000000
RightUpLeg -89.990351 -52.202716 1.514220
RightLeg 130.875823 -0.000000 -0.000000
RightFoot 47.030736 4.480876 5.544675
RightToeBase 35.904670 -0.000000 -0.000000
541
root 2.763027 33.697347 -3.537138 18.076981 -34.943563 -35.293224
Spine 24.469808 20.060695 28.199102
Head -21.918315 2.541367 -14.236663
LeftShoulder -25.641711 44.098880 9.452039
LeftArm 42.564833 -35.017083 -79.688407
LeftForeArm 0.440620 -0.000000 17.011570
LeftHand 12.608647 -0.000000 3.871647
LeftHandThumb1 -26.253704 0.000000 33.147579
RightShoulder 8.120424 -2.301182 -11.025793
RightArm 20.220197 -18.094481 67.283839
RightForeArm -18.345932 -0.000000 -5.548163
RightHand -5.581740 -0.000000 16.572166
RightHandThumb1 -24.326973 -0.000000 -32.862282
LeftUpLeg -5.497840 6.995678 23.895745
LeftLeg 18.264187 -0.000000 -0.000000
LeftFoot -17.702479 4.956355 -27.514757
LeftToeBase 0.559762 -0.000000 -0.000000
RightUpLeg -90.421325 -52.281498 1.889474
RightLeg 130.934858 -0.000000 -0.000000
RightFoot 47.069556 4.675184 5.615673
RightToeBase 35.488244 -0.000000 -0.000000
542
root 2.772882 33.685388 -3.568473 18.032016 -34.760869 -35.225773
Spine 24.515174 19.844660 28.221292
Head -21.983799 2.664899 -14.370372
LeftShoulder -25.678797 44.145147 9.410428
LeftArm 42.609749 -35.142428 -79.683866
LeftForeArm 0.446793 -0.000000 16.794334
LeftHand 12.695542 -0.000000 4.090758
LeftHandThumb1 -26.253704 0.000000 33.147579
RightShoulder 7.980295 -2.141475 -11.183124
RightArm 19.676954 -17.367028 67.462391
RightForeArm -17.084887 -0.000000 -5.611334
RightHand -6.183779 -0.000000 17.751134
RightHandThumb1 -24.326973 -0.000000 -32.862282
LeftUpLeg -5.584296 6.938092 23.876441
LeftLeg 18.174070 -0.000000 -0.000000
LeftFoot -17.952832 5.037127 -27.422961
LeftToeBase 0.155783 -0.000000 -0.000000
RightUpLeg -90.800187 -52.359843 2.213118
RightLeg 130.975722 -0.000000 -0.000000
RightFoot 47.280793 4.675345 5.892679
RightToeBase 35.740750 -0.000000 -0.000000
543
root 2.780798 33.672228 -3.602138 18.067566 -34.631115 -35.184943
Spine 24.514293 19.711749 28.237775
Head -22.052093 2.763093 -14.522665
LeftShoulder -25.682154 44.144120 9.358833
LeftArm 42.587120 -35.285188 -79.586303
LeftForeArm 0.203218 -0.000000 16.557137
LeftHand 12.823850 -0.000000 4.262853
LeftHandThumb1 -26.253704 0.000000 33.147579
RightShoulder 7.915286 -2.002711 -11.393048
RightArm 19.133681 -16.363457 67.776006
RightForeArm -16.452859 -0.000000 -5.661318
RightHand -6.385016 0.000000 18.915554
RightHandThumb1 -24.326973 -0.000000 -32.862282
LeftUpLeg -5.695468 6.899204 23.876380
LeftLeg 18.089355 -0.000000 -0.000000
LeftFoot -18.331402 4.961696 -27.597726
LeftToeBase 0.444746 -0.000000 -0.000000
RightUpLeg -91.312729 -52.370263 2.657470
RightLeg 131.021795 -0.000000 -0.000000
RightFoot 47.358701 4.757040 6.088049
RightToeBase 36.134794 -0.000000 -0.000000
544
root 2.786498 33.656676 -3.634903 18.113024 -34.520483 -35.146573
Spine 24.504555 19.617855 28.235947
Head -22.130256 2.851156 -14.611427
LeftShoulder -25.662767 44.102033 9.349685
LeftArm 42.545034 -35.470327 -79.550784
LeftForeArm 0.133379 -0.000000 16.389908
LeftHand 12.839167 -0.000000 4.498990
LeftHandThumb1 -26.253704 0.000000 33.147579
RightShoulder 7.882095 -1.877997 -11.613781
RightArm 18.557947 -15.444453 68.150399
RightForeArm -16.024407 0.000000 -5.535591
RightHand -6.428488 -0.000000 20.247370
RightHandThumb1 -24.326973 -0.000000 -32.862282
LeftUpLeg -5.795682 6.819773 23.862215
LeftLeg 18.007135 -0.000000 -0.000000
LeftFoot -18.799690 4.930248 -27.748443
LeftToeBase 0.128221 -0.000000 -0.000000
RightUpLeg -91.913430 -52.377690 3.217918
RightLeg 131.071268 -0.000000 -0.000000
RightFoot 47.359165 4.784458 6.094934
RightToeBase 35.897648 -0.000000 -0.000000
545
root 2.791104 33.635905 -3.668354 18.196499 -34.479766 -35.042779
Spine 24.417009 19.611306 28.096539
Head -22.219363 2.948284 -14.636298
LeftShoulder -25.738382 44.126508 9.286968
LeftArm 42.655128 -35.697383 -79.643085
LeftForeArm -0.021144 -0.000000 16.234783
LeftHand 13.057257 -0.000000 4.818933
LeftHandThumb1 -26.253704 0.000000 33.147579
RightShoulder 7.856024 -1.824823 -11.811057
RightArm 18.143599 -14.765371 68.533118
RightForeArm -15.388560 -0.000000 -5.258613
RightHand -5.501451 -0.000000 19.686302
RightHandThumb1 -24.326973 -0.000000 -32.862282
LeftUpLeg -5.905691 6.706374 23.752531
LeftLeg 17.860213 -0.000000 -0.000000
LeftFoot -19.228630 5.157594 -27.559115
LeftToeBase -0.125595 -0.000000 0.000000
RightUpLeg -92.554329 -52.354952 3.699205
RightLeg 131.180371 -0.000000 -0.000000
RightFoot 47.233131 4.597424 6.454942
RightToeBase 35.658030 -0.000000 -0.000000
546
root 2.789919 33.616382 -3.696433 18.242482 -34.477947 -34.985560
Spine 24.397516 19.627538 27.982651
Head -22.324682 3.058449 -14.590554
LeftShoulder -25.801083 44.119504 9.261630
LeftArm 42.733134 -35.970470 -79.804906
LeftForeArm -0.188365 -0.000000 16.213178
LeftHand 13.055049 -0.000000 5.039935
LeftHandThumb1 -26.253704 0.000000 33.147579
RightShoulder 7.814282 -1.842805 -11.995203
RightArm 17.931078 -14.373779 68.827195
RightForeArm -15.649648 -0.000000 -4.657832
RightHand -5.267062 -0.000000 18.820615
RightHandThumb1 -24.326973 -0.000000 -32.862282
LeftUpLeg -5.884308 6.636071 23.664795
LeftLeg 17.658419 -0.000000 -0.000000
LeftFoot -19.752334 5.326914 -27.480181
LeftToeBase 1.772682 -0.000000 -0.000000
RightUpLeg -93.050205 -52.344184 4.107938
RightLeg 131.293779 -0.000000 -0.000000
RightFoot 47.366445 4.388023 6.508191
RightToeBase 35.847962 -0.000000 -0.000000
547
root 2.783875 33.596247 -3.720472 18.268334 -34.530903 -34.913014
Spine 24.380460 19.705346 27.798950
Head -22.419942 3.207437 -14.434000
LeftShoulder -25.875566 44.102388 9.270035
LeftArm 42.832833 -36.284573 -80.042387
LeftForeArm -0.329812 -0.000000 16.260355
LeftHand 13.055017 0.000000 5.215349
LeftHandThumb1 -26.253704 0.000000 33.147579
RightShoulder 7.734906 -1.929842 -12.065809
RightArm 18.038857 -14.421654 68.931767
RightForeArm -15.745449 0.000000 -4.403094
RightHand -4.853223 -0.000000 17.728858
RightHandThumb1 -24.326973 -0.000000 -32.862282
LeftUpLeg -5.794342 6.534448 23.543387
LeftLeg 17.416112 -0.000000 -0.000000
LeftFoot -20.214832 5.593415 -27.492242
LeftToeBase 0.447505 -0.000000 -0.000000
RightUpLeg -93.509378 -52.337880 4.462141
RightLeg 131.401688 -0.000000 -0.000000
RightFoot 47.475997 4.380718 6.533184
RightToeBase 35.782632 -0.000000 -0.000000
548
root 2.775716 33.578649 -3.741623 18.311704 -34.609628 -34.864653
Spine 24.347833 19.829724 27.620109
Head -22.477515 3.365354 -14.267402
LeftShoulder -25.926473 44.090623 9.282080
LeftArm 42.918139 -36.592836 -80.300327
LeftForeArm -0.445172 -0.000000 16.393884
LeftHand 13.072500 0.000000 5.534621
LeftHandThumb1 -26.253704 0.000000 33.147579
RightShoulder 7.651390 -2.018403 -12.081363
RightArm 18.343672 -14.683824 68.941180
RightForeArm -14.315964 -0.000000 -4.536954
RightHand -4.846338 -0.000000 17.078242
RightHandThumb1 -24.326973 -0.000000 -32.862282
LeftUpLeg -5.681987 6.379824 23.440059
LeftLeg 17.175440 -0.000000 -0.000000
LeftFoot -20.746168 6.033699 -27.226372
LeftToeBase 1.336442 -0.000000 -0.000000
RightUpLeg -93.911092 -52.330530 4.829548
RightLeg 131.471415 -0.000000 -0.000000
RightFoot 47.459839 4.381845 6.664752
RightToeBase 35.588445 -0.000000 -0.000000
549
root 2.765222 33.562851 -3.765755 18.434276 -34.755202 -34.826690
Spine 24.250053 20.073632 27.391849
Head -22.488641 3.529275 -14.075427
LeftShoulder -25.960151 44.083841 9.295515
LeftArm 43.031562 -36.958223 -80.586216
LeftForeArm -0.667276 -0.000000 16.571815
LeftHand 13.109277 -0.000000 5.602683
LeftHandThumb1 -26.253704 0.000000 33.147579
RightShoulder 7.641249 -2.032563 -12.036379
RightArm 18.544250 -14.891541 69.044207
RightForeArm -13.182892 0.000000 -4.738621
RightHand -4.799040 -0.000000 17.009010
RightHandThumb1 -24.326973 -0.000000 -32.862282
LeftUpLeg -5.628933 6.287154 23.320589
LeftLeg 16.961505 -0.000000 -0.000000
LeftFoot -21.153060 6.522986 -26.960341
LeftToeBase 1.204362 -0.000000 -0.000000
RightUpLeg -94.493804 -52.249190 5.380235
RightLeg 131.558020 -0.000000 -0.000000
RightFoot 47.468106 4.474014 6.633617
RightToeBase 35.593047 -0.000000 -0.000000
